<svg width="1600" height="1200" viewBox="0 0 1600 1200" fill="none" xmlns="http://www.w3.org/2000/svg">
  <rect width="1600" height="1200" fill="#090807"/>
  <defs>
    <radialGradient id="g1" cx="0" cy="0" r="1" gradientUnits="userSpaceOnUse" gradientTransform="translate(1027 311) rotate(130) scale(899 780)">
      <stop stop-color="#E0B66A" stop-opacity="0.9"/>
      <stop offset="0.38" stop-color="#8A5E2F" stop-opacity="0.36"/>
      <stop offset="1" stop-color="#090807" stop-opacity="0"/>
    </radialGradient>
    <radialGradient id="g2" cx="0" cy="0" r="1" gradientUnits="userSpaceOnUse" gradientTransform="translate(360 766) rotate(-23) scale(784 512)">
      <stop stop-color="#F6EFE1" stop-opacity="0.42"/>
      <stop offset="0.45" stop-color="#58401F" stop-opacity="0.2"/>
      <stop offset="1" stop-color="#090807" stop-opacity="0"/>
    </radialGradient>
    <linearGradient id="line" x1="220" y1="136" x2="1391" y2="1098" gradientUnits="userSpaceOnUse">
      <stop stop-color="#F6EFE1" stop-opacity="0.04"/>
      <stop offset="0.48" stop-color="#E0B66A" stop-opacity="0.38"/>
      <stop offset="1" stop-color="#F6EFE1" stop-opacity="0.04"/>
    </linearGradient>
    <filter id="blur"><feGaussianBlur stdDeviation="34"/></filter>
    <filter id="noise" x="0" y="0" width="100%" height="100%"><feTurbulence type="fractalNoise" baseFrequency="0.8" numOctaves="4" stitchTiles="stitch"/><feColorMatrix type="saturate" values="0"/><feComponentTransfer><feFuncA type="table" tableValues="0 0.12"/></feComponentTransfer></filter>
  </defs>
  <rect width="1600" height="1200" fill="url(#g1)"/>
  <rect width="1600" height="1200" fill="url(#g2)"/>
  <path d="M261 867C462 554 713 413 1030 300C1163 252 1317 217 1440 169" stroke="url(#line)" stroke-width="2"/>
  <path d="M141 573C402 498 529 631 730 731C935 833 1138 885 1451 699" stroke="#F6EFE1" stroke-opacity="0.07" stroke-width="1"/>
  <circle cx="1157" cy="353" r="164" stroke="#E0B66A" stroke-opacity="0.22" stroke-width="1"/>
  <circle cx="1157" cy="353" r="91" fill="#E0B66A" fill-opacity="0.11" filter="url(#blur)"/>
  <rect x="1000" y="214" width="321" height="427" rx="160" stroke="#F6EFE1" stroke-opacity="0.13"/>
  <rect x="321" y="647" width="420" height="240" rx="120" stroke="#E0B66A" stroke-opacity="0.12"/>
  <rect width="1600" height="1200" filter="url(#noise)" opacity="0.55"/>
</svg>
